<?xml version="1.0" standalone="no"?>
<!DOCTYPE svg PUBLIC "-//W3C//DTD SVG 20010904//EN"
 "http://www.w3.org/TR/2001/REC-SVG-20010904/DTD/svg10.dtd">
<svg version="1.0" xmlns="http://www.w3.org/2000/svg"
 width="768.000000pt" height="768.000000pt" viewBox="0 0 768.000000 768.000000"
 preserveAspectRatio="xMidYMid meet">
<metadata>
Created by potrace 1.14, written by Peter Selinger 2001-2017
</metadata>
<g transform="translate(0.000000,768.000000) scale(0.100000,-0.100000)"
fill="#000000" stroke="none">
<path d="M2878 6325 c-2 -2 -26 -6 -53 -10 -62 -7 -105 -14 -127 -21 -9 -3
-25 -6 -35 -8 -99 -20 -298 -114 -395 -187 -73 -54 -188 -165 -188 -180 0 -5
-4 -9 -8 -9 -24 0 -174 -262 -217 -380 -23 -65 -75 -239 -80 -275 -3 -16 -7
-41 -10 -55 -7 -39 -13 -81 -19 -135 -3 -27 -8 -70 -11 -95 -12 -92 -6 -426 9
-551 3 -24 8 -66 12 -94 9 -73 12 -93 24 -160 5 -33 12 -71 14 -85 3 -14 5
-25 6 -25 1 0 3 -9 5 -20 8 -52 17 -104 26 -140 15 -61 16 -67 29 -115 7 -25
14 -56 17 -70 7 -41 150 -496 162 -515 3 -5 6 -17 8 -25 1 -8 6 -23 12 -35 5
-11 26 -63 46 -115 39 -100 73 -183 110 -265 43 -93 72 -160 76 -170 6 -16
137 -273 176 -345 71 -130 263 -451 290 -485 4 -5 32 -46 62 -90 68 -100 212
-289 223 -293 4 -2 8 -7 8 -12 0 -29 325 -351 445 -441 229 -171 514 -316 678
-345 17 -3 34 -7 37 -9 14 -9 78 -16 161 -19 245 -8 407 106 479 339 28 90 33
140 33 305 0 150 -5 208 -29 343 -9 51 -18 99 -19 107 -1 8 -5 22 -8 30 -5 13
-26 94 -43 170 -3 14 -10 41 -14 60 -11 41 -29 126 -36 157 -2 13 -6 35 -9 50
-13 65 -26 141 -31 183 -3 25 -7 56 -10 70 -23 130 -24 467 0 565 2 11 9 40
15 65 7 25 13 53 16 62 11 49 76 155 123 203 48 51 153 135 167 135 3 0 22 10
43 23 32 20 147 68 177 73 6 1 25 5 43 8 17 3 47 9 65 12 17 3 77 6 132 6 120
-1 153 -5 320 -46 33 -8 77 -17 99 -20 21 -4 41 -8 45 -10 3 -2 31 -7 61 -11
30 -4 66 -9 80 -11 164 -27 517 -25 562 3 5 2 17 6 29 8 12 2 40 13 63 24 110
54 168 144 167 259 -1 37 -3 74 -4 82 -11 45 -20 78 -29 105 -15 44 -110 238
-122 251 -6 6 -20 27 -31 47 -11 20 -23 37 -27 37 -5 0 -8 4 -8 10 0 13 -142
200 -152 200 -4 0 -8 5 -8 11 0 6 -6 16 -12 23 -7 7 -44 48 -83 92 -71 81
-370 384 -379 384 -2 0 -19 15 -38 33 -19 17 -53 48 -77 67 -24 19 -65 52 -90
73 -60 49 -51 42 -166 128 -55 41 -122 91 -150 110 -27 19 -51 37 -53 42 -2 4
-10 7 -17 7 -7 0 -15 3 -17 8 -3 8 -73 55 -199 133 -47 30 -94 59 -105 66 -87
55 -237 139 -379 213 -55 29 -104 55 -110 58 -5 4 -15 7 -22 8 -7 1 -26 12
-43 24 -16 12 -30 19 -30 16 0 -4 -26 7 -57 22 -88 44 -312 135 -458 187 -71
25 -130 45 -130 44 0 -1 -32 8 -71 20 -189 56 -416 102 -526 105 -16 1 -28 4
-28 7 0 6 -386 10 -392 4z"/>
</g>
</svg>
