<svg width="163" height="192" fill="none" xmlns="http://www.w3.org/2000/svg"><g filter="url(#Logo__a)"><path d="M36.093 45.757c21.19-30.042 80.783 2.753 104.337 26.307 23.553 23.554 26.17 41.401-10.78 33.187-1.532-.341-13.627-4.3-23.182 5.255-9.556 9.556-.661 37.637 0 40.958 7.895 39.679-23.922 28.014-39.39 12.547C43.526 140.458 14.906 75.8 36.094 45.757Z" fill="#DE643E"/></g><g filter="url(#Logo__b)"><path d="M48.401 54.356c15.263-21.641 58.191 1.983 75.158 18.95s18.852 29.823-7.765 23.906c-1.104-.246-9.816-3.097-16.699 3.786-6.883 6.883-.476 27.112 0 29.504 5.687 28.582-17.232 20.18-28.374 9.038-16.967-16.967-37.583-63.543-22.32-85.184Z" fill="#E47C3B"/></g><g filter="url(#Logo__c)"><path d="M61.83 60.432c8.85-12.548 33.741 1.15 43.579 10.988 9.838 9.838 10.931 17.292-4.502 13.861-.641-.142-5.692-1.796-9.683 2.195-3.991 3.991-.276 15.72 0 17.108 3.297 16.572-9.992 11.7-16.452 5.24C64.934 99.986 52.98 72.98 61.83 60.432Z" fill="#F9B330"/></g><defs><filter id="Logo__a" x="-61.318" y="-56.286" width="309.151" height="324.705" filterUnits="userSpaceOnUse" color-interpolation-filters="sRGB"><feFlood flood-opacity="0" result="BackgroundImageFix"/><feGaussianBlur in="BackgroundImage" stdDeviation="45"/><feComposite in2="SourceAlpha" operator="in" result="effect1_backgroundBlur_116_2738"/><feBlend in="SourceGraphic" in2="effect1_backgroundBlur_116_2738" result="shape"/></filter><filter id="Logo__b" x="-46.938" y="-44.319" width="273.033" height="284.238" filterUnits="userSpaceOnUse" color-interpolation-filters="sRGB"><feFlood flood-opacity="0" result="BackgroundImageFix"/><feGaussianBlur in="BackgroundImage" stdDeviation="45"/><feComposite in2="SourceAlpha" operator="in" result="effect1_backgroundBlur_116_2738"/><feBlend in="SourceGraphic" in2="effect1_backgroundBlur_116_2738" result="shape"/></filter><filter id="Logo__c" x="-31.265" y="-34.598" width="233.943" height="240.44" filterUnits="userSpaceOnUse" color-interpolation-filters="sRGB"><feFlood flood-opacity="0" result="BackgroundImageFix"/><feGaussianBlur in="BackgroundImage" stdDeviation="45"/><feComposite in2="SourceAlpha" operator="in" result="effect1_backgroundBlur_116_2738"/><feBlend in="SourceGraphic" in2="effect1_backgroundBlur_116_2738" result="shape"/></filter></defs></svg>