<svg width="759" height="200" fill="none" xmlns="http://www.w3.org/2000/svg"><path d="M219.846 49.36h-9.25l-29.304 73.112c-5.846 14.43-9.62 20.868-18.352 25.308V150h34.484v-2.22c-10.952-4.292-13.69-7.844-13.69-13.542 0-2.22.518-4.958 1.258-6.956l3.034-8.14h32.56l5.476 13.986c1.11 2.812 1.702 4.884 1.702 6.808 0 2.59-1.48 5.032-9.102 7.844V150h47.286v-2.22c-6.29-4.514-8.14-8.362-12.728-19.092L219.846 49.36Zm-15.91 27.676 15.022 38.11H189.58l14.356-38.11Zm102.382.148L274.72 85.99v1.85c5.032 1.85 6.734 4.292 6.734 14.874v35.52c0 7.104-1.628 9.028-6.512 9.916V150h41.736v-1.85c-7.326-.888-9.842-2.812-9.842-9.916V106.71c3.33-3.256 10.508-6.66 18.796-6.66 2.886 0 5.032.074 7.696.518V77.184c-15.17 0-23.31 13.246-26.862 25.678l-.148-25.678Zm68.71 74.814c14.134 0 23.606-10.656 25.53-20.646l-1.184-.888c-2.516 2.516-5.994 5.106-11.248 5.106-7.696 0-10.656-5.402-10.656-15.244V82.882h21.608v-3.626H377.47V56.168l-25.308 7.844v15.244h-9.694v3.626h9.694V127.8c0 15.244 7.104 24.198 22.866 24.198Zm103.596-25.234c-3.7 5.328-9.99 9.472-19.684 9.472-12.654 0-20.868-9.472-20.868-26.122v-.888h41.366v-3.7c0-17.538-11.84-28.342-30.414-28.342-22.644 0-38.554 15.688-38.554 38.11 0 23.162 13.394 36.778 35.89 36.778 19.314 0 30.34-10.36 33.522-24.494l-1.258-.814ZM449.098 80.07c5.92 0 8.362 6.586 8.362 15.54 0 5.994-1.406 9.842-6.364 9.842h-12.95c.666-16.354 4.662-25.382 10.952-25.382ZM492.037 150h38.85v-1.85c-5.106-.962-6.734-2.886-6.734-10.064V41.442l-32.116 8.954v1.85c5.032 1.85 6.734 4.292 6.734 14.874v70.966c0 7.178-1.628 9.102-6.734 10.064V150Zm66.869-77.626c8.362 0 14.578-5.772 14.578-13.172 0-7.844-5.92-13.912-14.578-13.912-7.918 0-14.06 6.068-14.06 13.912 0 7.4 6.142 13.172 14.06 13.172ZM540.628 150h38.85v-1.85c-5.106-.962-6.734-2.886-6.734-10.064V77.184l-32.116 8.88v1.85c5.032 1.85 6.734 4.366 6.734 14.948v35.224c0 7.178-1.628 9.102-6.734 10.064V150Zm118.892-23.236c-3.7 5.328-9.99 9.472-19.684 9.472-12.654 0-20.868-9.472-20.868-26.122v-.888h41.366v-3.7c0-17.538-11.84-28.342-30.414-28.342-22.644 0-38.554 15.688-38.554 38.11 0 23.162 13.394 36.778 35.89 36.778 19.314 0 30.34-10.36 33.522-24.494l-1.258-.814ZM629.994 80.07c5.92 0 8.362 6.586 8.362 15.54 0 5.994-1.406 9.842-6.364 9.842h-12.95c.666-16.354 4.662-25.382 10.952-25.382Zm74.536-2.886-31.598 8.806v1.85c5.032 1.85 6.734 4.292 6.734 14.874v35.52c0 7.104-1.628 9.028-6.512 9.916V150h41.736v-1.85c-7.326-.888-9.842-2.812-9.842-9.916V106.71c3.33-3.256 10.508-6.66 18.796-6.66 2.886 0 5.032.074 7.696.518V77.184c-15.17 0-23.31 13.246-26.862 25.678l-.148-25.678Z" fill="#DE643E"/><g filter="url(#Group 12__a)"><path d="M36.093 48.89c21.19-30.043 80.783 2.752 104.337 26.306 23.553 23.554 26.17 41.401-10.78 33.187-1.532-.341-13.627-4.3-23.182 5.255-9.556 9.556-.661 37.638 0 40.959 7.895 39.679-23.922 28.014-39.39 12.546C43.526 143.59 14.906 78.932 36.094 48.889Z" fill="#DE643E"/></g><g filter="url(#Group 12__b)"><path d="M48.401 57.488c15.263-21.641 58.192 1.983 75.158 18.95 16.967 16.967 18.852 29.823-7.764 23.906-1.105-.245-9.817-3.097-16.7 3.786-6.883 6.883-.476 27.112 0 29.504 5.687 28.582-17.232 20.18-28.374 9.038-16.966-16.967-37.583-63.543-22.32-85.184Z" fill="#E47C3B"/></g><g filter="url(#Group 12__c)"><path d="M61.83 63.564c8.85-12.548 33.741 1.15 43.579 10.988 9.838 9.838 10.931 17.292-4.502 13.861-.64-.142-5.692-1.796-9.683 2.195-3.99 3.991-.276 15.72 0 17.108 3.298 16.573-9.992 11.7-16.452 5.24-9.838-9.838-21.792-36.844-12.942-49.392Z" fill="#F9B330"/></g><defs><filter id="Group 12__a" x="-61.318" y="-53.154" width="309.151" height="324.705" filterUnits="userSpaceOnUse" color-interpolation-filters="sRGB"><feFlood flood-opacity="0" result="BackgroundImageFix"/><feGaussianBlur in="BackgroundImage" stdDeviation="45"/><feComposite in2="SourceAlpha" operator="in" result="effect1_backgroundBlur_53_1833"/><feBlend in="SourceGraphic" in2="effect1_backgroundBlur_53_1833" result="shape"/></filter><filter id="Group 12__b" x="-46.938" y="-41.187" width="273.033" height="284.238" filterUnits="userSpaceOnUse" color-interpolation-filters="sRGB"><feFlood flood-opacity="0" result="BackgroundImageFix"/><feGaussianBlur in="BackgroundImage" stdDeviation="45"/><feComposite in2="SourceAlpha" operator="in" result="effect1_backgroundBlur_53_1833"/><feBlend in="SourceGraphic" in2="effect1_backgroundBlur_53_1833" result="shape"/></filter><filter id="Group 12__c" x="-31.265" y="-31.466" width="233.943" height="240.44" filterUnits="userSpaceOnUse" color-interpolation-filters="sRGB"><feFlood flood-opacity="0" result="BackgroundImageFix"/><feGaussianBlur in="BackgroundImage" stdDeviation="45"/><feComposite in2="SourceAlpha" operator="in" result="effect1_backgroundBlur_53_1833"/><feBlend in="SourceGraphic" in2="effect1_backgroundBlur_53_1833" result="shape"/></filter></defs></svg>